<svg width="25" height="24" viewBox="0 0 25 24" fill="none" xmlns="http://www.w3.org/2000/svg">
  <g clip-path="url(#clip0_978_199)">
    <path
      d="M11.6357 1.71912C11.7053 1.64928 11.7881 1.59386 11.8792 1.55605C11.9703 1.51824 12.068 1.49878 12.1667 1.49878C12.2653 1.49878 12.363 1.51824 12.4541 1.55605C12.5452 1.59386 12.628 1.64928 12.6977 1.71912L14.9477 3.96912C15.0174 4.03885 15.0727 4.12164 15.1104 4.21274C15.1482 4.30385 15.1676 4.4015 15.1676 4.50012C15.1676 4.59874 15.1482 4.69639 15.1104 4.7875C15.0727 4.8786 15.0174 4.96139 14.9477 5.03112C14.8779 5.10085 14.7951 5.15617 14.704 5.1939C14.6129 5.23164 14.5153 5.25107 14.4167 5.25107C14.318 5.25107 14.2204 5.23164 14.1293 5.1939C14.0382 5.15617 13.9554 5.10085 13.8857 5.03112L12.9167 4.06062V6.75012C12.9167 6.94903 12.8376 7.1398 12.697 7.28045C12.5563 7.4211 12.3656 7.50012 12.1667 7.50012C11.9677 7.50012 11.777 7.4211 11.6363 7.28045C11.4957 7.1398 11.4167 6.94903 11.4167 6.75012V4.06062L10.4477 5.03112C10.3779 5.10085 10.2951 5.15617 10.204 5.1939C10.1129 5.23164 10.0153 5.25107 9.91666 5.25107C9.81805 5.25107 9.7204 5.23164 9.62929 5.1939C9.53818 5.15617 9.45539 5.10085 9.38566 5.03112C9.31593 4.96139 9.26061 4.8786 9.22288 4.7875C9.18514 4.69639 9.16571 4.59874 9.16571 4.50012C9.16571 4.4015 9.18514 4.30385 9.22288 4.21274C9.26061 4.12164 9.31593 4.03885 9.38566 3.96912L11.6357 1.71912ZM3.68116 6.51462C3.82181 6.37402 4.01254 6.29503 4.21141 6.29503C4.41028 6.29503 4.60102 6.37402 4.74166 6.51462L6.86266 8.63562C6.99928 8.77707 7.07488 8.96652 7.07317 9.16317C7.07146 9.35982 6.99258 9.54793 6.85352 9.68698C6.71447 9.82604 6.52636 9.90492 6.32971 9.90663C6.13306 9.90833 5.94361 9.83274 5.80216 9.69612L3.68116 7.57512C3.54056 7.43447 3.46157 7.24374 3.46157 7.04487C3.46157 6.846 3.54056 6.65527 3.68116 6.51462ZM20.6522 6.51462C20.7928 6.65527 20.8718 6.846 20.8718 7.04487C20.8718 7.24374 20.7928 7.43447 20.6522 7.57512L18.5312 9.69612C18.462 9.76775 18.3792 9.82489 18.2877 9.8642C18.1962 9.9035 18.0978 9.92419 17.9982 9.92506C17.8986 9.92592 17.7999 9.90695 17.7077 9.86924C17.6155 9.83153 17.5318 9.77584 17.4614 9.70542C17.3909 9.635 17.3353 9.55126 17.2975 9.45908C17.2598 9.36691 17.2409 9.26815 17.2417 9.16857C17.2426 9.06898 17.2633 8.97057 17.3026 8.87907C17.3419 8.78756 17.399 8.7048 17.4707 8.63562L19.5917 6.51462C19.7323 6.37402 19.923 6.29503 20.1219 6.29503C20.3208 6.29503 20.5115 6.37402 20.6522 6.51462ZM12.1667 10.5001C12.9567 10.4999 13.7329 10.7076 14.4171 11.1025C15.1014 11.4973 15.6697 12.0654 16.0648 12.7495C16.4599 13.4336 16.668 14.2097 16.668 14.9998C16.6681 15.7898 16.4602 16.5659 16.0652 17.2501H8.26666C7.87158 16.5658 7.66365 15.7896 7.66377 14.9994C7.6639 14.2092 7.87208 13.433 8.26738 12.7489C8.66268 12.0647 9.23116 11.4967 9.91565 11.1019C10.6001 10.7072 11.3765 10.4996 12.1667 10.5001ZM17.7317 17.2501C18.0994 16.3394 18.238 15.3523 18.1352 14.3755C18.0324 13.3987 17.6914 12.4621 17.1421 11.6479C16.5928 10.8336 15.852 10.1667 14.9848 9.70565C14.1175 9.24458 13.1503 9.00346 12.1682 9.00346C11.186 9.00346 10.2188 9.24458 9.35157 9.70565C8.48433 10.1667 7.74354 10.8336 7.19423 11.6479C6.64493 12.4621 6.30391 13.3987 6.20111 14.3755C6.09832 15.3523 6.23689 16.3394 6.60466 17.2501H0.915161C0.716249 17.2501 0.525483 17.3291 0.384831 17.4698C0.244179 17.6104 0.165161 17.8012 0.165161 18.0001C0.165161 18.199 0.244179 18.3898 0.384831 18.5305C0.525483 18.6711 0.716249 18.7501 0.915161 18.7501H23.4152C23.6141 18.7501 23.8048 18.6711 23.9455 18.5305C24.0861 18.3898 24.1652 18.199 24.1652 18.0001C24.1652 17.8012 24.0861 17.6104 23.9455 17.4698C23.8048 17.3291 23.6141 17.2501 23.4152 17.2501H17.7302H17.7317ZM0.166661 15.0001C0.166661 14.8012 0.245679 14.6104 0.386331 14.4698C0.526983 14.3291 0.717749 14.2501 0.916661 14.2501H3.91666C4.11557 14.2501 4.30634 14.3291 4.44699 14.4698C4.58764 14.6104 4.66666 14.8012 4.66666 15.0001C4.66666 15.199 4.58764 15.3898 4.44699 15.5305C4.30634 15.6711 4.11557 15.7501 3.91666 15.7501H0.916661C0.717749 15.7501 0.526983 15.6711 0.386331 15.5305C0.245679 15.3898 0.166661 15.199 0.166661 15.0001ZM19.6667 15.0001C19.6667 14.8012 19.7457 14.6104 19.8863 14.4698C20.027 14.3291 20.2177 14.2501 20.4167 14.2501H23.4167C23.6156 14.2501 23.8063 14.3291 23.947 14.4698C24.0876 14.6104 24.1667 14.8012 24.1667 15.0001C24.1667 15.199 24.0876 15.3898 23.947 15.5305C23.8063 15.6711 23.6156 15.7501 23.4167 15.7501H20.4167C20.2177 15.7501 20.027 15.6711 19.8863 15.5305C19.7457 15.3898 19.6667 15.199 19.6667 15.0001Z"
      fill="#29A19C" />
  </g>
  <defs>
    <clipPath id="clip0_978_199">
      <rect width="24" height="24" fill="white" transform="translate(0.166656)" />
    </clipPath>
  </defs>
</svg>