<svg width="139" height="203" viewBox="0 0 139 203" fill="none" xmlns="http://www.w3.org/2000/svg">
  <path
    d="M122.519 45.3326H108.747C107.908 45.3326 107.118 44.9284 106.612 44.2398C106.106 43.552 105.942 42.6581 106.169 41.8277C107.824 35.7763 104.936 29.46 99.3031 26.8084L84.6513 19.9119C78.5542 17.0419 73.2061 12.6993 69.1055 7.30469C64.3897 13.0367 58.4524 17.6726 51.7589 20.823L39.0432 26.8092C33.4115 29.4609 30.5227 35.7771 32.1769 41.8285C32.4051 42.6597 32.2413 43.5536 31.7345 44.2406C31.2276 44.9292 30.438 45.3334 29.6002 45.3334H15.8261C10.0534 45.3334 5.3555 50.0769 5.3555 55.9058V203H132.989V55.905C132.988 50.0761 128.293 45.3326 122.519 45.3326Z"
    fill="#29A19C" />
  <path
    d="M5.35549 55.905C5.35549 50.0761 10.0526 45.3326 15.8253 45.3326H29.5994C30.438 45.3326 31.2268 44.9284 31.7344 44.2398C32.2405 43.5512 32.4035 42.6581 32.1769 41.8277C30.5235 35.7771 33.4107 29.4601 39.0424 26.8084L51.7597 20.8222C58.4516 17.6718 64.3897 13.0359 69.1063 7.3039C73.2061 12.6993 78.5542 17.0411 84.6513 19.9111L99.3031 26.8076C104.936 29.4593 107.824 35.7747 106.169 41.8269C105.942 42.6581 106.106 43.5512 106.612 44.239C107.118 44.9276 107.908 45.3318 108.747 45.3318H122.519C128.293 45.3318 132.99 50.0753 132.99 55.9042V202.998H138.345V55.905C138.345 47.0349 131.246 39.8166 122.519 39.8166H111.935C112.521 32.2983 108.498 25.071 101.528 21.7911L86.8767 14.8946C81.1822 12.2136 76.2375 8.06338 72.5802 2.89288L71.3375 1.1327C70.8331 0.420485 70.0288 0 69.1723 0C68.3167 0 67.5132 0.420485 67.0088 1.1327C62.5375 7.45465 56.4942 12.5274 49.5334 15.8049L36.8161 21.7911C29.8488 25.071 25.8256 32.2992 26.4099 39.8166H15.8253C7.10019 39.8166 0 47.0349 0 55.905V202.999H5.35549V55.905Z"
    fill="#5EC4BF" />
  <path
    d="M132.828 92.4796C114.59 85.0063 92.9377 80.6746 69.7104 80.6746C46.1049 80.6746 24.1267 85.1504 5.70425 92.85V198.019H132.827L132.828 92.4796Z"
    fill="#386680" />
  <path
    d="M69.0957 103.404C68.1651 107.106 68.5726 106.759 64.9927 107.8C68.5563 108.761 68.1635 108.357 69.0957 112.028C70.107 108.341 69.7696 108.76 73.3658 107.8C69.7533 106.762 70.1062 107.125 69.0957 103.404Z"
    fill="white" />
  <path
    d="M37.4118 67.3967C36.4796 71.0996 36.8878 70.7533 33.308 71.7939C36.8715 72.7547 36.4788 72.3513 37.4118 76.0199C38.4215 72.3334 38.0849 72.753 41.6802 71.7939C38.067 70.7533 38.4198 71.1175 37.4118 67.3967Z"
    fill="white" />
  <path
    d="M97.0686 60.866C96.2268 64.2103 96.5952 63.8974 93.3633 64.8361C96.5797 65.7048 96.2244 65.3397 97.0686 68.6539C97.9805 65.3243 97.6765 65.7024 100.923 64.8361C97.661 63.8974 97.9805 64.225 97.0686 60.866Z"
    fill="white" />
  <path
    d="M45.8777 54.201C45.8777 53.1849 46.6788 52.3594 47.6664 52.3594C48.6541 52.3594 49.4551 53.1849 49.4551 54.201C49.4551 55.2188 48.6549 56.0435 47.6664 56.0435C46.6788 56.0435 45.8777 55.2188 45.8777 54.201Z"
    fill="white" />
  <path
    d="M46.3341 96.0321C46.3341 94.9214 47.2085 94.0217 48.2849 94.0217C49.3639 94.0217 50.2366 94.9214 50.2366 96.0321C50.2366 97.1411 49.3639 98.0416 48.2849 98.0416C47.2085 98.0424 46.3341 97.142 46.3341 96.0321Z"
    fill="white" />
  <path
    d="M90.4688 88.848C90.4688 88.0152 91.1248 87.3396 91.9331 87.3396C92.7407 87.3396 93.3959 88.0152 93.3959 88.848C93.3959 89.68 92.7407 90.3547 91.9331 90.3547C91.124 90.3547 90.4688 89.68 90.4688 88.848Z"
    fill="white" />
  <path
    d="M66.7676 41.3486C65.5159 41.3486 64.3001 41.4978 63.1291 41.7691C68.8056 43.5105 72.9453 48.9214 72.9453 55.3322C72.9453 63.1487 66.7936 69.4845 59.2062 69.4845C57.1608 69.4845 55.2197 69.0216 53.4766 68.1953C56.4616 72.4255 61.3004 75.179 66.7676 75.179C75.8373 75.179 83.1893 67.6062 83.1893 58.2642C83.1893 48.9215 75.8373 41.3486 66.7676 41.3486Z"
    fill="white" />
</svg>
  