<svg width="320" height="130" viewBox="0 0 320 130" fill="none" xmlns="http://www.w3.org/2000/svg">
<g clip-path="url(#clip0_37_10)">
<g clip-path="url(#clip1_37_10)">
<rect width="320" height="130" rx="8" fill="url(#paint0_linear_37_10)"/>
<path opacity="0.25" d="M251.323 160C299.524 160 338.598 150.731 338.598 139.297C338.598 127.863 299.524 118.594 251.323 118.594C203.122 118.594 164.048 127.863 164.048 139.297C164.048 150.731 203.122 160 251.323 160Z" fill="#042030"/>
<path d="M319.673 39.3868L251.323 63.1985L182.903 39.3868L150.184 87.8582L251.323 123.117L352.393 87.8582L319.673 39.3868Z" fill="#48ADA9"/>
<path opacity="0.45" d="M162.107 85.8798L245.985 118.594L217.148 89.4833C217.148 89.4833 169.802 77.8247 162.107 85.8798Z" fill="#240F4F"/>
<path opacity="0.45" d="M340.539 85.8798L256.661 118.594L285.498 89.4833C285.429 89.4833 332.775 77.8247 340.539 85.8798Z" fill="#240F4F"/>
<path d="M251.323 123.117L150.184 87.8582V92.451L251.323 127.709L352.393 92.451V87.8582L251.323 123.117Z" fill="#29A19C"/>
<path d="M197.461 144.314L209.176 113.012L246.886 126.155L197.461 144.314Z" fill="#3B1E77"/>
<path opacity="0.45" d="M200.719 135.27L246.886 126.155L209.176 113.012L200.719 135.27Z" fill="#29A19C"/>
<path d="M251.323 124.53L197.461 144.314L201.481 148.624L251.323 130.536L301.095 148.624L305.185 144.314L251.323 124.53Z" fill="#29A19C"/>
<path d="M305.185 144.314L293.401 113.012L255.69 126.155L305.185 144.314Z" fill="#3B1E77"/>
<path opacity="0.45" d="M301.858 135.27L255.69 126.155L293.401 113.012L301.858 135.27Z" fill="#29A19C"/>
<path d="M251.323 130.536C253.352 130.536 254.997 128.859 254.997 126.791C254.997 124.722 253.352 123.046 251.323 123.046C249.294 123.046 247.649 124.722 247.649 126.791C247.649 128.859 249.294 130.536 251.323 130.536Z" fill="white" fill-opacity="0.5"/>
<path d="M316.762 39.3868L251.323 72.5961L185.884 39.3868C182.903 43.4143 158.918 84.184 158.918 84.184C159.196 84.184 159.404 84.2546 159.681 84.2546C219.851 90.4019 236.558 109.692 242.103 114.355C247.649 119.089 251.392 118.594 251.392 118.594C251.392 118.594 255.136 119.089 260.681 114.355C266.227 109.692 282.933 90.4019 343.104 84.2546C343.381 84.2546 343.589 84.184 343.866 84.184C343.728 84.184 319.673 43.485 316.762 39.3868Z" fill="#8FD1CF"/>
<path d="M343.728 84.184C343.45 84.184 343.242 84.2546 342.965 84.2546C282.795 90.4019 266.088 109.692 260.543 114.355C254.997 119.089 251.254 118.594 251.254 118.594C251.254 118.594 247.51 119.089 241.965 114.355C236.419 109.692 219.713 90.4019 159.542 84.2546C159.265 84.2546 159.057 84.184 158.78 84.184C158.295 84.9612 158.78 85.5265 158.78 85.5265C219.574 91.5324 235.726 110.893 241.272 115.627C246.817 120.29 251.184 119.937 251.184 119.937C251.184 119.937 255.552 120.29 261.097 115.627C266.643 110.963 282.795 91.6031 343.589 85.5265C343.728 85.5265 344.213 84.9612 343.728 84.184Z" fill="#29A19C"/>
<path d="M314.266 35.5006C280.784 27.3043 251.254 55.3555 251.254 55.3555C251.254 55.3555 221.723 27.3043 188.241 35.5006C188.241 35.5006 178.744 50.3388 165.643 75.5637C165.643 75.5637 231.567 83.1241 251.254 111.317C270.941 83.1241 336.865 75.5637 336.865 75.5637C323.763 50.3388 314.266 35.5006 314.266 35.5006Z" fill="#F5EFFB"/>
<path d="M336.865 75.5637C336.865 75.5637 270.941 83.1241 251.254 111.317C231.636 83.1241 165.712 75.5637 165.712 75.5637C165.712 75.5637 165.712 77.8247 162.038 82.2762C162.038 82.2762 221.862 86.657 243.628 111.953C248.758 117.888 251.254 117.181 251.254 117.181C251.254 117.181 253.819 117.888 258.879 111.953C280.576 86.657 340.469 82.2762 340.469 82.2762C336.865 77.7541 336.865 75.5637 336.865 75.5637Z" fill="#1EAEA8"/>
<path d="M310.523 38.4682C310.523 38.4682 285.498 31.9677 251.254 59.0297C217.079 32.0384 191.984 38.4682 191.984 38.4682L175.07 71.9602C226.506 75.5637 251.254 102.06 251.254 102.06C251.254 102.06 276.001 75.5637 327.437 71.9602L310.523 38.4682ZM251.323 98.8808C251.323 98.8808 228.17 74.7158 179.091 69.9817L193.302 39.8814C193.302 39.8814 217.91 35.006 251.323 60.5842C284.736 35.006 309.344 39.8814 309.344 39.8814L323.555 69.9817C274.476 74.7158 251.323 98.8808 251.323 98.8808Z" fill="#29A19C"/>
<path opacity="0.2" d="M257.631 84.2503C266.874 77.3022 295.758 61.9267 315.167 64.0465" stroke="#29A19C" stroke-width="3" stroke-linecap="round"/>
<path opacity="0.2" d="M257.631 64.753C265.834 58.2063 287.162 45.3792 306.849 46.4444" stroke="#29A19C" stroke-width="3" stroke-linecap="round"/>
<path opacity="0.2" d="M257.631 74.6452C266.527 67.5948 289.657 53.781 311.008 54.9282" stroke="#29A19C" stroke-width="3" stroke-linecap="round"/>
<path opacity="0.2" d="M245.847 84.2503C236.604 77.3022 207.72 61.9267 188.31 64.0465" stroke="#29A19C" stroke-width="3" stroke-linecap="round"/>
<path opacity="0.2" d="M245.847 64.753C237.644 58.2063 216.316 45.3792 196.629 46.4444" stroke="#29A19C" stroke-width="3" stroke-linecap="round"/>
<path opacity="0.2" d="M245.847 74.6452C236.951 67.5948 213.821 53.781 192.47 54.9282" stroke="#29A19C" stroke-width="3" stroke-linecap="round"/>
<path d="M251.323 55.3555C251.323 55.3555 252.016 52.8825 253.333 53.5891C253.333 53.5891 252.501 93.6521 253.888 109.268C254.234 113.154 257.562 118.453 258.879 120.432H257.146L256.661 122.057C256.661 122.057 251.531 113.224 251.323 109.762C250.283 94.2174 250.838 59.1004 251.323 55.3555Z" fill="#71D8D3"/>
</g>
</g>
<defs>
<linearGradient id="paint0_linear_37_10" x1="0" y1="0" x2="90.6622" y2="223.168" gradientUnits="userSpaceOnUse">
<stop stop-color="#29A19C"/>
<stop offset="1" stop-color="#5EC4BF"/>
</linearGradient>
<clipPath id="clip0_37_10">
<rect width="320" height="130" rx="8" fill="white"/>
</clipPath>
<clipPath id="clip1_37_10">
<rect width="320" height="131" rx="8" fill="white"/>
</clipPath>
</defs>
</svg>
