<svg width="142" height="32" viewBox="0 0 142 32" fill="none" xmlns="http://www.w3.org/2000/svg">
<path d="M3.18654 9.76947C2.92041 11.4968 1.85765 12.726 0 13.4579V13.3583C0.995792 12.7601 1.59327 12.1276 1.79243 11.4642C0.861858 11.53 0.298738 11.6964 0.0995792 11.9626C0.231771 11.1651 0.463541 10.5996 0.796634 10.2679C0.928825 10.1341 1.72546 9.96885 3.18654 9.76947ZM51.3829 15.053C51.3829 16.0498 51.1837 16.9126 50.7854 17.6444C50.3871 18.5077 49.7896 18.9406 48.993 18.9406C48.461 18.9406 48.0627 18.9059 47.798 18.8411C47.798 19.1728 47.798 19.5045 47.798 19.838C47.798 21.1666 47.6315 21.9968 47.3001 22.3302C44.6441 25.3862 42.1546 26.9159 39.8317 26.9159C38.8359 26.9159 38.0719 26.4501 37.5414 25.52C37.0761 24.7878 36.8443 23.9574 36.8443 23.0278C36.8443 21.4981 37.2083 19.6042 37.9397 17.3455C37.1431 17.9434 35.8142 19.1726 33.9565 21.034C31.898 23.0278 30.4043 24.4237 29.4755 25.2209C27.7483 26.5498 26.3541 27.2147 25.2931 27.2147C24.4965 27.2147 23.7994 26.8317 23.202 26.0683C22.6045 25.3037 22.3057 24.4232 22.3057 23.4263C22.3057 22.2298 22.7041 20.7003 23.5007 18.8409C23.3668 18.9062 23.202 18.9403 23.0028 18.9403C22.5375 18.9403 22.1392 18.9057 21.8079 18.8409C21.8079 19.1726 21.8079 19.5043 21.8079 19.8378C21.8079 21.1664 21.6739 21.9636 21.4095 22.2303C18.2882 25.2865 15.7661 26.816 13.8415 26.816C12.8457 26.816 12.0817 26.4169 11.5512 25.6192C11.0192 24.8222 10.7546 23.8579 10.7546 22.7282C10.7546 22.3295 10.9194 21.448 11.2525 20.0865C11.5838 18.7232 11.7504 17.5444 11.7504 16.5475C11.7504 15.75 11.6508 14.9849 11.4516 14.2547C10.655 14.0553 9.85835 13.4898 9.06171 12.56C8.26508 11.6287 7.73307 11.1641 7.46844 11.1641C7.1356 11.1641 6.60484 11.7283 5.87518 12.8591C5.34292 13.7219 4.87938 14.5864 4.48107 15.4507C6.00737 16.2482 6.77139 17.9756 6.77139 20.6343H6.27349C5.54233 20.3021 4.84503 19.9377 4.18233 19.5389C3.51813 19.0734 3.18654 18.3753 3.18654 17.4457C1.65874 18.1764 0.896213 19.1733 0.896213 20.4364C0.896213 20.5687 1.54348 22.0967 2.83801 25.0218C4.13254 27.9452 4.7798 30.2712 4.7798 32H4.58064C4.44671 30.9358 3.68443 28.975 2.29032 26.1179C1.0284 23.4594 0.398317 21.5327 0.398317 20.3364C0.398317 18.6074 1.42672 17.0123 3.48527 15.5514C3.74991 14.6869 4.4141 13.5235 5.47686 12.0623C6.67181 10.3332 7.63349 9.47041 8.36466 9.47041C8.62929 9.47041 9.26087 10.0685 10.2567 11.2648C10.1227 10.9313 10.0575 10.5996 10.0575 10.2679C10.0575 9.40336 10.3562 8.6729 10.9537 8.07477C11.5512 7.47664 12.2809 7.17732 13.1445 7.17732C13.8074 7.17732 15.1019 7.49234 17.0281 8.12461C18.9527 8.75514 20.6455 9.07165 22.1066 9.07165L20.9116 11.0654C19.9813 11.1978 18.4876 11.7959 16.4306 12.8598C14.6381 13.7894 13.1445 14.2555 11.9495 14.2555C11.8825 14.2555 11.7504 14.2555 11.5512 14.2555C11.8828 15.1853 12.0491 16.1822 12.0491 17.2461C12.0491 18.1092 11.9323 19.0734 11.7006 20.1371C11.467 21.2 11.352 21.7976 11.352 21.9317C11.352 24.0578 12.2139 25.1215 13.9411 25.1215C15.2015 25.1215 16.6623 24.4566 18.3226 23.1277C19.3836 22.2632 20.3794 21.3665 21.31 20.4364C21.31 19.9706 21.0438 19.2399 20.5133 18.243C20.2472 17.6449 19.9485 17.0467 19.6171 16.4488L20.3142 14.7541C20.9116 15.684 21.3426 16.3148 21.6087 16.648C22.0725 17.1123 22.5704 17.3463 23.1024 17.3463C23.7653 17.3463 24.2973 17.0801 24.6957 16.5488C24.6957 15.5519 24.6287 14.5877 24.4965 13.6576L22.8036 3.09084C22.7367 2.42717 22.6045 1.92872 22.4053 1.59551L22.9032 0.199626L24.6957 3.4891V4.08723L23.7994 3.19003C23.7325 3.32411 23.7325 3.45645 23.7994 3.58903L25.2931 13.6573C25.3584 13.9222 25.3927 14.3883 25.3927 15.0532C25.3927 17.047 24.8605 18.2759 23.7994 18.7417C23.135 20.2029 22.8036 21.4988 22.8036 22.6295C22.8036 23.2277 23.0354 23.7917 23.5007 24.3247C24.0312 24.9226 24.6615 25.2219 25.3927 25.2219C26.5877 25.2219 28.114 24.3247 29.9734 22.5303C31.6321 21.0006 33.2923 19.4402 34.9523 17.845C36.2127 16.7806 37.4418 15.8839 38.6367 15.1531C38.3036 15.0196 37.8058 14.6547 37.1431 14.0568C36.2125 13.3246 35.749 12.4942 35.749 11.5646C35.749 10.0351 36.5782 9.27178 38.2384 9.27178C41.425 9.27178 44.8761 9.83551 48.5947 10.9665L47.3001 12.9602C46.1052 13.3593 43.9471 14.2221 40.8275 15.5521C41.1588 16.0835 41.5245 17.3465 41.9229 19.3403C40.1304 19.3403 39.2342 18.8072 39.2342 17.7453C39.2342 17.6115 39.2668 17.3792 39.3338 17.0475C39.3993 16.7143 39.4334 16.4817 39.4334 16.3497C39.1673 16.549 38.7692 16.8135 38.2384 17.1467C37.574 19.2728 37.2426 20.8683 37.2426 21.932C37.2426 24.0581 38.1388 25.1217 39.9313 25.1217C41.8559 25.1217 44.3128 23.5596 47.3001 20.4366C47.2332 19.9708 46.9673 19.2401 46.5035 18.2432C46.1707 17.7107 45.8719 17.1467 45.6073 16.5485L46.2048 14.7541C46.8022 15.751 47.2658 16.3818 47.5989 16.648C47.9972 17.1123 48.4951 17.3463 49.0926 17.3463C49.7553 17.3463 50.2875 17.0801 50.6858 16.5488C50.6189 15.5519 50.5193 14.5877 50.3871 13.6576L48.7938 3.19028C48.6599 2.45981 48.5277 1.92847 48.3955 1.59551L48.8934 0.199626L50.5863 3.48935V4.08748L49.7896 3.19003C49.7227 3.38966 49.7227 3.55639 49.7896 3.68847L51.2833 13.6573C51.3488 13.922 51.3829 14.3878 51.3829 15.053ZM6.87097 6.18069C6.87097 7.30991 6.50526 7.87564 5.7756 7.87564C5.11115 7.87564 4.7798 7.50928 4.7798 6.77907C4.7798 6.31327 4.87938 5.74953 5.07854 5.08436C5.47686 4.28685 5.67602 3.82255 5.67602 3.68847C5.80821 4.22156 5.84107 4.58592 5.7756 4.78505C6.50526 5.1838 6.87097 5.6496 6.87097 6.18069ZM6.57223 6.57944C6.3061 6.24623 5.90804 6.01371 5.37728 5.88162C5.11115 6.14654 4.97896 6.31277 4.97896 6.38006C4.97896 6.77882 5.21073 6.97819 5.67602 6.97819C6.00737 6.97819 6.3061 6.84411 6.57223 6.57944ZM9.26087 23.028L8.56382 24.1241C8.1655 24.2564 7.73307 24.3566 7.26928 24.4234C6.53788 24.6883 6.17391 24.9874 6.17391 25.3209C6.50551 26.6495 6.67181 27.5796 6.67181 28.1119C6.67181 29.3084 6.6377 30.0062 6.57223 30.2051C6.57223 29.4729 6.4383 28.5104 6.17391 27.3141C5.90804 26.1174 5.7756 25.353 5.7756 25.0213C5.7756 24.4234 5.99019 24.0244 6.42286 23.825C6.85379 23.6252 7.26928 23.4587 7.6676 23.3266C7.40172 23.1267 7.16971 23.0275 6.97055 23.0275L6.37307 23.526V23.0275C6.57223 22.7611 6.73703 22.5119 6.87097 22.2799C7.00316 22.0461 7.16971 21.9312 7.36886 21.9312C7.76718 21.9315 8.39727 22.2958 9.26087 23.028ZM10.0575 18.0436L9.26087 19.6381L7.56802 18.8411L8.1655 17.4455L6.67181 16.6477L7.36886 15.0532L9.16129 15.8507L8.46424 17.2461L10.0575 18.0436ZM18.5217 10.3676C18.1234 10.3003 17.1931 10.0685 15.7335 9.66953C14.5386 9.27103 13.608 9.07165 12.9453 9.07165C11.4173 9.07165 10.655 9.63564 10.655 10.7664C10.655 11.2304 10.82 11.6962 11.1529 12.162C11.4175 12.4269 11.7503 12.561 12.1487 12.561C13.0775 12.561 14.1403 12.2946 15.3352 11.7635C17.2598 10.8987 18.3226 10.4329 18.5217 10.3676ZM19.418 17.9439C18.4222 20.4688 17.1602 21.7321 15.6339 21.7321C14.5045 21.7321 13.9411 21.1995 13.9411 20.1371C13.9411 19.2725 14.6708 18.3758 16.1318 17.4457C15.866 17.2461 15.5998 17.1464 15.3352 17.1464C15.0024 17.1464 14.6708 17.3117 14.3394 17.6449V17.2461C14.6708 16.5139 15.136 16.1495 15.7335 16.1495C16.7293 16.1495 17.5259 16.2819 18.1234 16.5488L16.9285 17.6446C16.4632 17.7769 15.9481 18.0763 15.385 18.5423C14.8201 19.0064 14.5386 19.4051 14.5386 19.7386C14.5386 20.3367 15.0691 20.6358 16.1318 20.6358C16.8618 20.6358 17.5914 20.237 18.3226 19.4398C18.6539 18.9064 19.0196 18.408 19.418 17.9439ZM21.2104 4.38629C21.2104 5.18355 20.9443 5.58255 20.4137 5.58255C20.1476 5.58255 19.8815 5.45022 19.6171 5.18355C19.418 5.71664 19.1192 5.98106 18.7209 5.98106C18.2556 5.98106 18.0238 5.68199 18.0238 5.08386C18.0238 4.68486 18.0238 4.28636 18.0238 3.8876C17.8899 4.02168 17.7251 4.22081 17.5259 4.48548V4.08673C17.6581 3.75502 17.9897 3.32336 18.5217 2.79078C18.3226 4.18642 18.4548 4.88424 18.9201 4.88424C19.2514 4.88424 19.418 4.65196 19.418 4.18617C19.418 3.98679 19.351 3.58829 19.2188 2.98991L19.5175 2.39252C19.7167 2.72573 19.8491 3.22417 19.9158 3.88785C19.9158 4.35365 20.0809 4.58567 20.4137 4.58567C20.6129 4.58567 20.7125 4.42044 20.7125 4.08723L20.4137 2.79128L20.8121 2.09346C21.0767 2.95801 21.2104 3.72287 21.2104 4.38629ZM26.8864 21.5327C26.8194 22.4623 26.4881 22.9286 25.8906 22.9286C25.2931 22.9286 24.9944 22.6293 24.9944 22.0312C24.9944 21.1666 25.4582 20.1697 26.3885 19.0405C25.9232 20.1029 25.6914 20.8675 25.6914 21.3333C25.6914 21.7971 25.8562 22.0312 26.1893 22.0312C26.5207 22.0312 26.7198 21.8644 26.7868 21.5327H26.8864ZM28.878 15.7508C28.878 17.1462 28.7114 18.2088 28.3801 18.9408H28.1809C28.2461 17.4781 28.1809 15.9502 27.9818 14.3554L26.1893 3.09059C26.1224 2.42692 25.9902 1.92847 25.791 1.59526L26.2889 0.199377L27.9818 3.4891V4.08723L27.1851 3.18978C27.1182 3.32386 27.1182 3.4562 27.1851 3.58879L28.7784 14.2555C28.8436 14.5872 28.878 15.0856 28.878 15.7508ZM33.359 3.28972C33.359 3.55589 33.2595 3.85545 33.0603 4.18692C32.8611 3.98754 32.6946 3.8881 32.5624 3.8881C32.2296 3.8881 31.9649 4.35389 31.7658 5.28374C31.6318 5.88187 31.5323 6.54555 31.467 7.27751C31.2679 6.74467 30.935 6.04685 30.4712 5.18405C30.4043 5.51776 30.2051 5.68249 29.8738 5.68249C29.3415 5.68249 29.0771 5.38368 29.0771 4.7853C29.0771 4.05458 29.3092 3.68872 29.7742 3.68872C30.3717 3.68872 30.9022 4.38679 31.3675 5.78218C31.7658 3.38966 32.2637 2.1934 32.8611 2.1934C33.1925 2.19315 33.359 2.55925 33.359 3.28972ZM33.4586 8.87227C33.1925 10.6664 32.1641 11.8956 30.3717 12.5607L30.2721 12.4611C31.2679 11.8632 31.8654 11.2304 32.0645 10.567C31.1342 10.6325 30.5708 10.799 30.3717 11.0654C30.5039 10.2679 30.7356 9.70243 31.0687 9.37072C31.2009 9.23688 31.9975 9.07165 33.4586 8.87227ZM33.359 15.053L32.5624 16.6475L30.8696 15.8505L31.6662 14.2555L33.359 15.053ZM35.1515 25.7196C35.1515 26.6495 34.8184 27.1155 34.1557 27.1155C33.5582 27.1155 33.2595 26.8167 33.2595 26.2181C33.2595 25.3535 33.723 24.3566 34.6536 23.2274H34.7532C34.2209 24.2898 33.9565 25.0547 33.9565 25.5203C33.9565 25.9843 34.1216 26.2181 34.4544 26.2181C34.786 26.2181 34.9849 26.0516 35.0519 25.7196H35.1515ZM36.9439 4.38629C36.9439 5.18355 36.7776 6.081 36.446 7.07788C36.5115 6.5453 36.5456 5.94866 36.5456 5.28349C36.5456 4.08723 36.1799 3.15738 35.4502 2.49221L35.5498 1.29595C36.0136 1.56212 36.3621 2.02816 36.5954 2.69159C36.8271 3.35676 36.9439 3.92199 36.9439 4.38629ZM45.209 12.2617C43.3496 11.4642 41.1915 11.0654 38.7363 11.0654C37.5414 11.0654 36.7447 11.1978 36.3464 11.4642C36.3464 11.5965 36.7774 11.9783 37.641 12.6108C38.5028 13.2414 39.2342 13.8569 39.8317 14.4548C41.2258 13.7897 43.0182 13.0592 45.209 12.2617ZM47.3997 0.996885C47.3997 1.39589 47.283 1.86168 47.0512 2.39277C46.8177 2.92536 46.5361 3.32386 46.2048 3.58903C46.6031 2.79153 46.8022 2.22779 46.8022 1.89433C43.4165 2.95826 40.3296 4.75265 37.5414 7.27751C37.6068 6.94405 37.6736 6.61234 37.7405 6.28062C38.8685 5.1514 40.3794 4.08748 42.2714 3.09059C44.1634 2.09346 45.8719 1.39564 47.3997 0.996885ZM44.9102 18.5421C45.0424 19.0734 44.9102 19.3722 44.5119 19.4395C44.3128 19.505 44.014 19.3722 43.6157 19.0405C43.3496 19.5045 42.9187 20.1366 42.3212 20.9348C41.5898 21.7976 40.6283 22.3307 39.4334 22.5296L38.5372 22.729C39.466 22.2632 40.4946 21.5983 41.6241 20.7352C42.5529 20.003 43.183 19.2725 43.5161 18.5421C43.7808 18.0092 44.014 17.7104 44.2132 17.6444C44.5445 17.5781 44.7763 17.8769 44.9102 18.5421ZM45.7069 6.67913C45.7069 7.47664 45.4407 7.87564 44.9102 7.87564C44.6441 7.87564 44.3782 7.70891 44.1136 7.3772C43.9144 7.90829 43.6157 8.17445 43.2174 8.17445C42.8191 8.17445 42.5856 7.90854 42.5203 7.3772C42.5203 6.9114 42.5203 6.47975 42.5203 6.08125C42.3867 6.28062 42.2545 6.48 42.122 6.67913V6.38006C42.1872 6.04685 42.486 5.6167 43.0182 5.08411C42.8191 6.41296 42.9513 7.07788 43.4165 7.07788C43.7481 7.07788 43.9144 6.87851 43.9144 6.47975C43.9144 6.28037 43.8475 5.84922 43.7153 5.1838L44.1136 4.68536C44.2458 4.95178 44.3454 5.41757 44.4123 6.08125C44.4123 6.54555 44.5774 6.77907 44.9102 6.77907C45.1094 6.77907 45.209 6.64498 45.209 6.38031C45.209 6.31302 45.1094 5.88187 44.9102 5.08436L45.3086 4.28685C45.5732 5.15115 45.7069 5.94866 45.7069 6.67913ZM44.7111 18.8411C44.445 18.4421 44.1462 18.3427 43.8149 18.5421C44.2132 18.8067 44.5119 18.9064 44.7111 18.8411ZM53.7728 22.9284C53.7728 23.5918 53.5736 23.9252 53.1753 23.9252C52.9092 23.9252 52.6105 23.8258 52.2791 23.6259C51.1494 25.6857 49.0582 26.6826 46.0056 26.6166H45.906V26.5171C48.8934 25.7849 50.9176 24.7554 51.9804 23.427C51.6475 23.293 51.4825 23.0936 51.4825 22.8292C51.4825 22.6293 51.582 22.396 51.7812 22.1308C51.9804 21.8649 52.1452 21.7321 52.2791 21.7321L52.1795 21.3333L52.2791 21.2336C52.4113 21.2336 52.6431 21.366 52.9762 21.6324V21.7321C53.5067 22.3302 53.7728 22.729 53.7728 22.9284ZM54.8682 15.7508C54.8682 17.1462 54.7019 18.2088 54.3703 18.9408H54.1711C54.2363 17.4781 54.1367 15.9502 53.8724 14.3554L52.1795 3.09059C52.0456 2.42692 51.9134 1.92847 51.7812 1.59526L52.2791 0.199377L53.9719 3.4891V4.08723L53.1753 3.18978C53.1083 3.32386 53.0757 3.4562 53.0757 3.58879L54.7686 14.2555C54.8341 14.5872 54.8682 15.0856 54.8682 15.7508ZM52.6774 22.4299C52.6774 22.2958 52.6105 22.2303 52.4783 22.2303C52.2124 22.2303 52.013 22.33 51.8808 22.5293C52.013 22.7287 52.2124 22.8611 52.4783 22.9284C52.4783 22.8611 52.5109 22.7786 52.5778 22.6791C52.6431 22.5794 52.6774 22.4952 52.6774 22.4299ZM142 18.7414C142 19.6713 141.784 20.4364 141.352 21.0343C140.92 21.6319 140.439 21.9315 139.909 21.9315C138.913 21.9315 138.216 21.2989 137.817 20.0371C137.552 21.2989 136.987 21.9315 136.125 21.9315C135.328 21.9315 134.796 21.3984 134.532 20.3367C133.999 21.5985 133.071 22.2308 131.744 22.2308C131.278 22.2308 130.897 22.0471 130.598 21.6827C130.3 21.3166 130.15 20.9004 130.15 20.4366C130.15 20.237 130.15 20.0705 130.15 19.9382C120.789 22.8616 111.23 24.3247 101.471 24.3247C96.7564 24.3247 92.1432 23.9257 87.6295 23.128C83.3132 22.4631 80.0938 21.5659 77.9703 20.4366C77.9703 21.3662 77.9357 22.2963 77.8707 23.2277H77.6718C76.8752 22.6951 76.3773 22.0643 76.1781 21.3336C76.1112 20.8005 76.0614 20.3021 76.0287 19.8383C75.9941 19.3725 75.5801 19.1399 74.784 19.1399C74.0526 19.1399 72.8079 20.2029 71.0498 22.3305C69.29 24.4563 67.9457 25.5205 67.0168 25.5205C66.4846 25.5205 66.021 25.2713 65.6227 24.7728C65.2244 24.2744 65.0252 23.5923 65.0252 22.7292C65.0252 22.2634 65.1248 21.6982 65.324 21.0345C64.9911 21.1669 64.6598 21.2339 64.3282 21.2339C62.9996 21.2339 62.1374 20.3367 61.7391 18.5423C61.6052 20.7355 60.6094 21.832 58.7517 21.832C57.9551 21.832 57.3576 21.3989 56.9593 20.5361C56.6934 19.8709 56.5936 19.1063 56.6606 18.2432C56.6606 18.1094 56.7258 17.6451 56.8597 16.8476C56.9252 16.1824 56.9593 15.5843 56.9593 15.0532C56.494 15.7169 56.1627 16.5814 55.9635 17.6446C55.8298 18.3756 55.6977 19.1058 55.5652 19.8383C55.2991 21.0345 54.8682 21.6322 54.2707 21.6322C53.8054 21.6322 53.4071 21.2493 53.0757 20.4857C52.7426 19.7211 52.5778 18.9062 52.5778 18.0434C52.5778 17.112 52.6431 16.0825 52.777 14.953L52.9762 15.0527C52.9092 15.5838 52.8766 16.1151 52.8766 16.6472C52.8766 18.9059 53.3404 20.0371 54.2707 20.0371C54.602 20.0371 54.9008 19.5387 55.1669 18.5418C55.6304 16.8798 55.8966 15.9155 55.9635 15.6506C56.4273 14.5201 57.0248 13.7565 57.756 13.358V14.6537C57.4898 16.3813 57.3576 17.4452 57.3576 17.844C57.3576 19.3047 57.8882 20.0371 58.9509 20.0371C59.6139 20.0371 60.1956 19.7707 60.6935 19.2396C61.1914 18.707 61.4404 18.0763 61.4404 17.3455L60.7433 13.4579L61.2412 12.0623C61.5726 12.726 61.7717 13.2586 61.8387 13.6571C62.0379 14.7863 62.2027 15.9499 62.3366 17.1462C62.7349 18.8067 63.4646 19.6384 64.5274 19.6384C65.19 19.6384 65.6553 19.3725 65.9215 18.8414C65.5886 18.1092 65.2573 17.3787 64.9257 16.6477C64.4604 15.4517 64.1943 14.5204 64.129 13.8569L63.8303 13.1589L64.2286 11.7632L65.6227 13.9564V14.4548C65.4236 14.3207 65.2244 14.1558 65.0252 13.9564C64.9583 14.0887 64.9583 14.1558 65.0252 14.1558C65.9541 16.2819 66.4193 17.7446 66.4193 18.5423C66.4193 19.7386 66.1535 20.5361 65.6227 20.9351C65.4236 21.5985 65.324 22.0969 65.324 22.4304C65.324 23.36 65.7878 23.8263 66.7181 23.8263C67.5799 23.8263 68.8747 22.7452 70.6017 20.5864C72.3269 18.4259 73.6886 17.3465 74.6844 17.3465C75.0158 17.3465 75.4811 17.5459 76.0785 17.9444L76.5764 16.7479C77.5053 18.0765 80.2609 19.3052 84.8415 20.4361C90.0851 21.6322 96.094 22.2303 102.865 22.2303C107.446 22.2303 112.49 21.8315 118.001 21.034C122.781 20.3018 127.096 19.4046 130.947 18.3424C130.813 18.5418 130.748 18.7733 130.748 19.0403C130.748 19.4393 130.88 19.8036 131.146 20.1363C131.41 20.4683 131.709 20.6348 132.043 20.6348C132.705 20.6348 133.402 20.3016 134.133 19.6379L135.428 18.3427L135.527 18.4424C135.527 18.5747 135.527 18.7073 135.527 18.8414C135.527 19.7707 135.859 20.237 136.523 20.237C136.854 20.237 137.22 19.9382 137.618 19.3398C138.082 18.5423 138.415 18.0768 138.614 17.9439H138.713C138.713 18.0763 138.713 18.2088 138.713 18.3429C138.713 18.874 138.895 19.3555 139.261 19.7884C139.625 20.2196 139.974 20.4364 140.307 20.4364C140.97 20.4364 141.302 20.1702 141.302 19.6386C141.302 19.041 140.805 17.8447 139.809 16.0503C138.746 14.1221 138.181 12.96 138.116 12.5612C138.049 12.4272 137.949 12.2447 137.817 12.013C137.683 11.7792 137.618 11.6297 137.618 11.5644L137.917 10.069L139.908 12.1622V12.5607L139.012 12.1617V12.3614C139.543 13.1586 140.073 13.9561 140.605 14.7539C141.535 16.4142 142 17.7445 142 18.7414ZM53.4741 23.2274C53.3404 23.0936 53.1412 22.8613 52.8766 22.5296L52.6774 23.028C52.8766 23.1604 53.0757 23.2274 53.2749 23.2274C53.3404 23.2274 53.4071 23.2274 53.4741 23.2274ZM65.324 0C65.324 0.333209 65.19 0.76486 64.9257 1.29595C64.6598 1.82854 64.3937 2.26019 64.129 2.5919C64.5273 1.79439 64.7265 1.19601 64.7265 0.797508C60.6094 2.1276 57.1241 4.08723 54.2707 6.67913C54.2707 6.34592 54.3362 5.98131 54.4698 5.5828C55.5978 4.52062 57.3235 3.38966 59.648 2.19315C61.8387 1.06393 63.7307 0.333209 65.324 0ZM61.1417 23.3271C61.1417 23.6588 61.0077 23.9905 60.7433 24.324C60.6094 24.1241 60.4446 24.0249 60.2454 24.0249C59.9126 24.0249 59.648 24.4561 59.4488 25.3209C59.3818 25.9843 59.2825 26.6495 59.1501 27.3146C59.0161 26.8488 58.6848 26.151 58.1543 25.2212C58.0873 25.6199 57.9208 25.8193 57.6564 25.8193C57.0589 25.8193 56.7602 25.4859 56.7602 24.8224C56.7602 24.1573 57.0248 23.8255 57.5568 23.8255C58.0873 23.8255 58.6178 24.5234 59.1501 25.9188C59.4814 23.526 59.9793 22.3302 60.6438 22.3302C60.9751 22.3302 61.1417 22.6619 61.1417 23.3271ZM61.3408 8.57321C61.3408 9.37072 61.0421 9.76947 60.4446 9.76947C60.2454 9.76947 59.9793 9.60274 59.648 9.27103C59.514 9.80212 59.2153 10.0685 58.7517 10.0685C58.3534 10.0685 58.1199 9.80212 58.0547 9.27103C58.0547 8.80523 58.0547 8.37383 58.0547 7.97508C57.9208 8.17445 57.7886 8.37408 57.6564 8.57321V8.17445C57.7886 7.90854 58.0873 7.50953 58.5526 6.97819C58.4187 8.30679 58.5526 8.97196 58.9509 8.97196C59.2825 8.97196 59.4488 8.73819 59.4488 8.27414C59.4488 8.14006 59.3818 7.74131 59.2496 7.07788L59.648 6.57944C59.8471 6.84436 59.9467 7.30991 59.9467 7.97508C60.0122 8.43913 60.2113 8.6729 60.5442 8.6729C60.7433 8.6729 60.8429 8.53932 60.8429 8.27414C60.8429 8.2071 60.7433 7.7757 60.5442 6.97819L60.8429 6.18069C61.1743 7.04374 61.3408 7.841 61.3408 8.57321ZM63.8303 7.47664C63.8303 8.27414 63.664 9.17134 63.3324 10.1682C63.3979 9.63564 63.432 9.03776 63.432 8.37408C63.432 7.17757 63.0663 6.24623 62.3366 5.5828L62.4362 4.28685C62.8345 4.62006 63.1661 5.1185 63.432 5.78218C63.6964 6.44536 63.8303 7.01084 63.8303 7.47664ZM69.2076 15.7508C69.2076 17.1462 69.0736 18.2088 68.8092 18.9408H68.6101C68.6753 17.4781 68.5757 15.9502 68.3114 14.3554L66.6185 3.09059C66.4846 2.42692 66.3524 1.92847 66.2202 1.59526L66.7181 0.199377L68.4109 3.4891V4.08723L67.6143 3.18978C67.5473 3.32386 67.5147 3.4562 67.5147 3.58879L69.2076 14.2555C69.2076 14.5872 69.2076 15.0856 69.2076 15.7508ZM75.5806 22.629C75.6464 23.2272 75.5137 23.5591 75.1823 23.6259C74.9832 23.6259 74.6501 23.4923 74.1865 23.2272C73.9209 23.6915 73.5221 24.2896 72.9916 25.0216C72.1949 25.8844 71.1992 26.4496 70.0042 26.7163L69.2076 26.816C70.0694 26.4169 71.0655 25.7844 72.1949 24.9216C73.1907 24.1239 73.8534 23.359 74.1865 22.6285C74.4512 22.096 74.6501 21.7969 74.784 21.7313C75.1154 21.7321 75.3815 22.0312 75.5806 22.629ZM74.9832 4.78505C74.9832 5.05122 74.8836 5.35078 74.6844 5.68224C74.4853 5.48287 74.3187 5.38343 74.1865 5.38343C73.8534 5.38343 73.5893 5.81607 73.3899 6.67913C73.2562 7.41009 73.1564 8.07502 73.0914 8.6729C72.9577 8.20735 72.6261 7.54243 72.0956 6.67913C72.0284 7.01109 71.8297 7.17757 71.4984 7.17757C70.9661 7.17757 70.7018 6.87875 70.7018 6.28037C70.7018 5.54966 70.9335 5.1838 71.3988 5.1838C71.9963 5.1838 72.5268 5.88187 72.9921 7.27726C73.3904 4.88474 73.8883 3.68847 74.4858 3.68847C74.8166 3.68847 74.9832 4.05458 74.9832 4.78505ZM75.2819 10.2679L74.5844 11.3645C74.186 11.4966 73.7539 11.6294 73.2901 11.7632C72.5587 11.9626 72.1949 12.2617 72.1949 12.6604C72.5263 13.9222 72.6928 14.8194 72.6928 15.3523C72.6928 16.5485 72.6585 17.2464 72.5935 17.4455C72.5935 16.7133 72.4598 15.7665 72.1949 14.6046C71.9293 13.441 71.7964 12.6933 71.7964 12.3616C71.7964 11.6964 72.0112 11.265 72.4439 11.0657C72.8748 10.8663 73.2901 10.6996 73.6886 10.5672C73.3555 10.4331 73.0914 10.3679 72.892 10.3679C72.9577 10.3679 72.7583 10.4999 72.295 10.7666L72.3941 10.2682C72.5263 10.0688 72.6762 9.81956 72.8425 9.5205C73.0073 9.22143 73.1907 9.0719 73.3899 9.0719C73.788 9.07165 74.4185 9.4704 75.2819 10.2679ZM75.3815 22.9284C75.1159 22.5293 74.8166 22.4299 74.4853 22.629C74.8166 22.894 75.1154 22.9936 75.3815 22.9284ZM77.4727 20.2368C77.2735 20.1029 76.9748 19.8039 76.5759 19.3396C76.5759 19.6713 76.6586 20.0526 76.8249 20.486C76.9899 20.9174 77.1734 21.134 77.3726 21.134C77.4385 21.1337 77.4727 20.8349 77.4727 20.2368ZM128.656 24.4237C128.324 24.4237 128.092 24.2241 127.959 23.8258C127.494 24.4237 127.063 24.723 126.665 24.723C126.531 24.723 126.317 24.6233 126.018 24.4242C125.719 24.2243 125.535 24.1246 125.47 24.1246C125.137 24.1246 124.507 24.3245 123.578 24.7227C122.382 25.2538 121.419 25.6526 120.69 25.9193C119.229 26.3831 117.635 26.6168 115.91 26.6168L115.811 26.4174C117.27 26.4174 118.731 26.1181 120.192 25.52C120.989 25.2536 122.117 24.7225 123.578 23.9252C124.639 23.3274 125.403 23.0278 125.868 23.0278C126 23.0278 126.2 23.1601 126.466 23.4268C126.73 23.6917 126.964 23.8258 127.163 23.8258C127.427 23.8258 127.726 23.4923 128.059 22.8289L128.358 22.629C128.291 23.1606 128.457 23.4268 128.856 23.4268C129.055 23.4268 129.254 23.0933 129.453 22.4299L129.652 22.3305C129.652 23.7259 129.319 24.4237 128.656 24.4237ZM136.523 6.28037C136.523 6.5453 136.389 6.8785 136.124 7.27726C135.925 7.01084 135.759 6.8785 135.626 6.8785C135.294 6.8785 135.029 7.34231 134.83 8.27414C134.763 8.87228 134.663 9.50305 134.532 10.1682C134.332 9.70268 133.999 9.03776 133.536 8.17445C133.468 8.50642 133.27 8.6729 132.938 8.6729C132.406 8.6729 132.142 8.37408 132.142 7.7757C132.142 7.04349 132.374 6.67913 132.839 6.67913C133.436 6.67913 133.967 7.3772 134.432 8.77259C134.83 6.38006 135.328 5.1838 135.926 5.1838C136.324 5.1838 136.523 5.54991 136.523 6.28037ZM135.727 13.9564C135.727 15.1526 135.361 15.7508 134.631 15.7508C133.967 15.7508 133.635 15.3847 133.635 14.6542C133.635 14.1887 133.768 13.6232 134.034 12.9595C134.432 12.162 134.631 11.6964 134.631 11.5639C134.763 12.095 134.796 12.4611 134.731 12.6602C135.393 13.0592 135.727 13.4906 135.727 13.9564ZM135.428 14.4548C135.162 14.1216 134.763 13.8569 134.233 13.6573C134.034 13.9893 133.934 14.1887 133.934 14.2555C133.934 14.5872 134.166 14.7539 134.631 14.7539C134.962 14.7539 135.229 14.6542 135.428 14.4548ZM140.407 23.9252L139.71 25.52L138.017 24.6223L138.714 23.0278L140.407 23.9252Z" fill="white"/>
</svg>
