<svg width="128" height="128" viewBox="0 0 128 128" fill="none" xmlns="http://www.w3.org/2000/svg">
<rect width="128" height="128" rx="8" fill="#29A19C"/>
<path opacity="0.25" d="M64.6767 74.7912C89.0858 74.7912 108.873 70.0831 108.873 64.2755C108.873 58.4678 89.0858 53.7598 64.6767 53.7598C40.2675 53.7598 20.48 58.4678 20.48 64.2755C20.48 70.0831 40.2675 74.7912 64.6767 74.7912Z" fill="#042030"/>
<path d="M98.6307 38.5762L64.0176 50.671L29.3694 38.5762L12.8 63.1966L64.0176 81.1056L115.2 63.1966L98.6307 38.5762Z" fill="#48ADA9"/>
<path opacity="0.45" d="M18.838 62.1916L61.3145 78.8086L46.711 64.022C46.711 64.022 22.7346 58.1002 18.838 62.1916Z" fill="#240F4F"/>
<path opacity="0.45" d="M109.197 62.1916L66.7206 78.8086L81.3241 64.022C81.289 64.022 105.265 58.1002 109.197 62.1916Z" fill="#240F4F"/>
<path d="M64.0176 81.1055L12.8 63.1965V65.5294L64.0176 83.4384L115.2 65.5294V63.1965L64.0176 81.1055Z" fill="#29A19C"/>
<path d="M36.7413 91.8726L42.674 75.9734L61.7709 82.6489L36.7413 91.8726Z" fill="#3B1E77"/>
<path opacity="0.45" d="M38.3912 87.2787L61.7709 82.6489L42.674 75.9734L38.3912 87.2787Z" fill="#29A19C"/>
<path d="M64.0176 81.8235L36.7413 91.8726L38.7774 94.0619L64.0176 84.8741L89.2226 94.0619L91.2938 91.8726L64.0176 81.8235Z" fill="#29A19C"/>
<path d="M91.2938 91.8726L85.326 75.9734L66.2292 82.6489L91.2938 91.8726Z" fill="#3B1E77"/>
<path opacity="0.45" d="M89.6088 87.2787L66.2292 82.6489L85.326 75.9734L89.6088 87.2787Z" fill="#29A19C"/>
<path d="M64.0176 84.8741C65.0451 84.8741 65.8781 84.0225 65.8781 82.972C65.8781 81.9214 65.0451 81.0698 64.0176 81.0698C62.99 81.0698 62.157 81.9214 62.157 82.972C62.157 84.0225 62.99 84.8741 64.0176 84.8741Z" fill="white" fill-opacity="0.5"/>
<path d="M97.1563 38.5762L64.0176 55.4444L30.8789 38.5762C29.3694 40.6219 17.2232 61.3303 17.2232 61.3303C17.3636 61.3303 17.4689 61.3662 17.6093 61.3662C48.0801 64.4886 56.5403 74.2865 59.3487 76.6552C62.157 79.0598 64.0527 78.8086 64.0527 78.8086C64.0527 78.8086 65.9483 79.0598 68.7567 76.6552C71.5651 74.2865 80.0253 64.4886 110.496 61.3662C110.636 61.3662 110.742 61.3303 110.882 61.3303C110.812 61.3303 98.6307 40.6578 97.1563 38.5762Z" fill="#8FD1CF"/>
<path d="M110.812 61.3303C110.672 61.3303 110.566 61.3662 110.426 61.3662C79.955 64.4886 71.4948 74.2865 68.6865 76.6553C65.8781 79.0599 63.9825 78.8086 63.9825 78.8086C63.9825 78.8086 62.0868 79.0599 59.2785 76.6553C56.4701 74.2865 48.0099 64.4886 17.5391 61.3662C17.3987 61.3662 17.2934 61.3303 17.153 61.3303C16.9072 61.7251 17.153 62.0122 17.153 62.0122C47.9397 65.0629 56.1191 74.8967 58.9274 77.3013C61.7358 79.67 63.9474 79.4906 63.9474 79.4906C63.9474 79.4906 66.159 79.67 68.9673 77.3013C71.7757 74.9325 79.9551 65.0987 110.742 62.0122C110.812 62.0122 111.058 61.7251 110.812 61.3303Z" fill="#29A19C"/>
<path d="M95.8925 36.6023C78.937 32.4391 63.9825 46.6873 63.9825 46.6873C63.9825 46.6873 49.0279 32.4391 32.0724 36.6023C32.0724 36.6023 27.2631 44.1392 20.6283 56.9518C20.6283 56.9518 54.0128 60.792 63.9825 75.112C73.9521 60.792 107.337 56.9518 107.337 56.9518C100.702 44.1392 95.8925 36.6023 95.8925 36.6023Z" fill="#F5EFFB"/>
<path d="M107.337 56.9519C107.337 56.9519 73.9521 60.7921 63.9825 75.1121C54.0479 60.7921 20.6634 56.9519 20.6634 56.9519C20.6634 56.9519 20.6634 58.1004 18.8029 60.3614C18.8029 60.3614 49.0981 62.5866 60.121 75.4351C62.7187 78.4499 63.9825 78.091 63.9825 78.091C63.9825 78.091 65.2813 78.4499 67.844 75.4351C78.8317 62.5866 109.162 60.3614 109.162 60.3614C107.337 58.0645 107.337 56.9519 107.337 56.9519Z" fill="#1EAEA8"/>
<path d="M93.9969 38.1097C93.9969 38.1097 81.3241 34.8078 63.9825 48.5536C46.6759 34.8437 33.9681 38.1097 33.9681 38.1097L25.4026 55.1214C51.4501 56.9518 63.9825 70.4105 63.9825 70.4105C63.9825 70.4105 76.5148 56.9518 102.562 55.1214L93.9969 38.1097ZM64.0176 68.7954C64.0176 68.7954 52.2927 56.5211 27.4386 54.1165L34.6351 38.8275C34.6351 38.8275 47.0972 36.3511 64.0176 49.3432C80.938 36.3511 93.4001 38.8275 93.4001 38.8275L100.597 54.1165C75.7425 56.5211 64.0176 68.7954 64.0176 68.7954Z" fill="#29A19C"/>
<path opacity="0.2" d="M67.2121 61.3642C71.8927 57.835 86.5196 50.0253 96.3489 51.102" stroke="#29A19C" stroke-width="3" stroke-linecap="round"/>
<path opacity="0.2" d="M67.2121 51.4607C71.3661 48.1354 82.1666 41.62 92.1363 42.1611" stroke="#29A19C" stroke-width="3" stroke-linecap="round"/>
<path opacity="0.2" d="M67.2121 56.4854C71.7172 52.9043 83.4304 45.8877 94.2426 46.4704" stroke="#29A19C" stroke-width="3" stroke-linecap="round"/>
<path opacity="0.2" d="M61.2443 61.3642C56.5637 57.835 41.9368 50.0253 32.1075 51.102" stroke="#29A19C" stroke-width="3" stroke-linecap="round"/>
<path opacity="0.2" d="M61.2443 51.4607C57.0903 48.1354 46.2898 41.62 36.3201 42.1611" stroke="#29A19C" stroke-width="3" stroke-linecap="round"/>
<path opacity="0.2" d="M61.2443 56.4854C56.7392 52.9043 45.026 45.8877 34.2138 46.4704" stroke="#29A19C" stroke-width="3" stroke-linecap="round"/>
<path d="M64.0176 46.6873C64.0176 46.6873 64.3686 45.4312 65.0356 45.7901C65.0356 45.7901 64.6143 66.1396 65.3164 74.0712C65.492 76.0452 67.177 78.7369 67.8439 79.7418H66.9663L66.7206 80.5673C66.7206 80.5673 64.1229 76.081 64.0176 74.3224C63.491 66.4267 63.7718 48.5895 64.0176 46.6873Z" fill="#71D8D3"/>
</svg>
