<svg width="24" height="24" viewBox="0 0 24 24" fill="none" xmlns="http://www.w3.org/2000/svg">
  <g clip-path="url(#clip0_978_203)">
    <path
      d="M11.469 7.281C11.5387 7.35084 11.6214 7.40626 11.7126 7.44407C11.8037 7.48188 11.9014 7.50134 12 7.50134C12.0987 7.50134 12.1963 7.48188 12.2875 7.44407C12.3786 7.40626 12.4613 7.35084 12.531 7.281L14.781 5.031C14.8507 4.96127 14.9061 4.87848 14.9438 4.78737C14.9815 4.69627 15.001 4.59862 15.001 4.5C15.001 4.40138 14.9815 4.30373 14.9438 4.21263C14.9061 4.12152 14.8507 4.03873 14.781 3.969C14.7113 3.89927 14.6285 3.84395 14.5374 3.80622C14.4463 3.76848 14.3486 3.74905 14.25 3.74905C14.1514 3.74905 14.0537 3.76848 13.9626 3.80622C13.8715 3.84395 13.7887 3.89927 13.719 3.969L12.75 4.9395V2.25C12.75 2.05109 12.671 1.86032 12.5303 1.71967C12.3897 1.57902 12.1989 1.5 12 1.5C11.8011 1.5 11.6103 1.57902 11.4697 1.71967C11.329 1.86032 11.25 2.05109 11.25 2.25V4.9395L10.281 3.969C10.2113 3.89927 10.1285 3.84395 10.0374 3.80622C9.94628 3.76848 9.84863 3.74905 9.75001 3.74905C9.6514 3.74905 9.55375 3.76848 9.46264 3.80622C9.37153 3.84395 9.28874 3.89927 9.21901 3.969C9.14928 4.03873 9.09397 4.12152 9.05623 4.21263C9.01849 4.30373 8.99906 4.40138 8.99906 4.5C8.99906 4.59862 9.01849 4.69627 9.05623 4.78737C9.09397 4.87848 9.14928 4.96127 9.21901 5.031L11.469 7.281ZM3.51451 6.516C3.65516 6.3754 3.84589 6.29641 4.04476 6.29641C4.24364 6.29641 4.43437 6.3754 4.57501 6.516L6.69601 8.6355C6.83263 8.77695 6.90823 8.9664 6.90652 9.16305C6.90481 9.3597 6.82593 9.54781 6.68688 9.68686C6.54782 9.82592 6.35971 9.9048 6.16306 9.90651C5.96642 9.90821 5.77696 9.83262 5.63551 9.696L3.51451 7.575C3.37391 7.43435 3.29492 7.24362 3.29492 7.04475C3.29492 6.84588 3.37391 6.65515 3.51451 6.5145V6.516ZM20.4855 6.516C20.6257 6.65658 20.7044 6.84699 20.7044 7.0455C20.7044 7.24401 20.6257 7.43442 20.4855 7.575L18.3645 9.696C18.2953 9.76763 18.2126 9.82477 18.1211 9.86408C18.0296 9.90338 17.9311 9.92407 17.8316 9.92494C17.732 9.9258 17.6332 9.90683 17.541 9.86912C17.4489 9.83141 17.3651 9.77572 17.2947 9.7053C17.2243 9.63488 17.1686 9.55114 17.1309 9.45897C17.0932 9.36679 17.0742 9.26803 17.0751 9.16845C17.0759 9.06886 17.0966 8.97045 17.1359 8.87895C17.1752 8.78744 17.2324 8.70469 17.304 8.6355L19.425 6.5145C19.5657 6.3739 19.7564 6.29491 19.9553 6.29491C20.1541 6.29491 20.3449 6.3739 20.4855 6.5145V6.516ZM12 10.5C12.79 10.4998 13.5662 10.7075 14.2505 11.1024C14.9348 11.4972 15.503 12.0653 15.8982 12.7494C16.2933 13.4335 16.5013 14.2096 16.5014 14.9997C16.5015 15.7897 16.2935 16.5658 15.8985 17.25H8.10001C7.70493 16.5657 7.497 15.7894 7.49713 14.9993C7.49725 14.2091 7.70543 13.4329 8.10073 12.7487C8.49603 12.0646 9.06451 11.4966 9.749 11.1018C10.4335 10.7071 11.2099 10.4995 12 10.5ZM17.565 17.25C17.9328 16.3393 18.0714 15.3522 17.9686 14.3754C17.8658 13.3986 17.5247 12.462 16.9754 11.6477C16.4261 10.8335 15.6853 10.1666 14.8181 9.70553C13.9509 9.24446 12.9837 9.00334 12.0015 9.00334C11.0193 9.00334 10.0522 9.24446 9.18492 9.70553C8.31768 10.1666 7.57689 10.8335 7.02758 11.6477C6.47828 12.462 6.13726 13.3986 6.03446 14.3754C5.93167 15.3522 6.07024 16.3393 6.43801 17.25H0.748512C0.5496 17.25 0.358834 17.329 0.218182 17.4697C0.0775299 17.6103 -0.00148773 17.8011 -0.00148773 18C-0.00148773 18.1989 0.0775299 18.3897 0.218182 18.5303C0.358834 18.671 0.5496 18.75 0.748512 18.75H23.2485C23.4474 18.75 23.6382 18.671 23.7788 18.5303C23.9195 18.3897 23.9985 18.1989 23.9985 18C23.9985 17.8011 23.9195 17.6103 23.7788 17.4697C23.6382 17.329 23.4474 17.25 23.2485 17.25H17.5635H17.565ZM1.22681e-05 15C1.22682e-05 14.8011 0.0790299 14.6103 0.219682 14.4697C0.360334 14.329 0.5511 14.25 0.750012 14.25H3.75001C3.94892 14.25 4.13969 14.329 4.28034 14.4697C4.42099 14.6103 4.50001 14.8011 4.50001 15C4.50001 15.1989 4.42099 15.3897 4.28034 15.5303C4.13969 15.671 3.94892 15.75 3.75001 15.75H0.750012C0.5511 15.75 0.360334 15.671 0.219682 15.5303C0.0790299 15.3897 1.22682e-05 15.1989 1.22681e-05 15ZM19.5 15C19.5 14.8011 19.579 14.6103 19.7197 14.4697C19.8603 14.329 20.0511 14.25 20.25 14.25H23.25C23.4489 14.25 23.6397 14.329 23.7803 14.4697C23.921 14.6103 24 14.8011 24 15C24 15.1989 23.921 15.3897 23.7803 15.5303C23.6397 15.671 23.4489 15.75 23.25 15.75H20.25C20.0511 15.75 19.8603 15.671 19.7197 15.5303C19.579 15.3897 19.5 15.1989 19.5 15Z"
      fill="#29A19C" />
  </g>
  <defs>
    <clipPath id="clip0_978_203">
      <rect width="24" height="24" fill="white" />
    </clipPath>
  </defs>
</svg>
  