<svg width="217" height="217" viewBox="0 0 217 217" fill="none" xmlns="http://www.w3.org/2000/svg">
  <g clip-path="url(#clip0_1002_275)">
    <path d="M217 0H0V217H217V0Z" fill="transparent" />
    <path
      d="M57.7755 128.509L50.9762 128.563L50.9882 130.035L51.0741 140.793L51.0862 142.267L52.0566 142.259L52.3467 143.887C52.4537 144.487 52.9774 144.922 53.5862 144.917L54.1558 144.912L56.1133 154.805C56.2904 155.699 57.0311 156.306 57.7672 156.161L61.2136 155.479C61.9497 155.333 62.4033 154.49 62.2263 153.595C61.9656 152.275 60.4503 152.503 60.4518 152.491C60.552 151.532 59.8219 150.489 59.666 150.657C60.5551 149.699 59.4068 146.939 59.0097 147.341C59.6238 146.718 59.3322 145.326 58.9163 144.557C58.9351 144.54 58.9569 144.527 58.975 144.508L60.9672 142.485C61.9543 142.668 62.9247 142.941 63.8741 143.305C68.2555 144.99 73.4214 146.974 76.3591 148.105L76.1527 122.325C73.2337 123.499 68.1003 125.568 63.746 127.323C61.8548 128.084 59.8152 128.493 57.7755 128.509Z"
      fill="#386680" />
    <path
      d="M45.6634 132.61L45.7094 138.346C45.7207 139.734 46.8547 140.847 48.2426 140.836L49.5868 140.825L49.5009 130.067L48.1567 130.078C46.7688 130.088 45.6529 131.222 45.6634 132.61Z"
      fill="#386680" />
    <path
      d="M79.5878 121.059C79.4303 120.907 79.2193 120.814 78.9857 120.815C78.5103 120.819 78.1403 121.21 78.1441 121.671C78.1705 124.949 78.3332 145.342 78.3589 148.558C78.3619 148.558 78.3619 148.558 78.3649 148.558C78.3837 148.76 78.4749 148.938 78.6113 149.072C78.7657 149.224 78.9767 149.318 79.2133 149.316C79.6804 149.312 80.0587 148.931 80.0549 148.463L79.8409 121.656C79.8387 121.423 79.7422 121.211 79.5878 121.059Z"
      fill="#386680" />
    <path d="M29.9016 79.8944V123.896L163.861 105.574V61.5737L29.9016 79.8944Z" fill="#29A19C" />
    <path d="M29.9016 119.256V140.267L51.8291 115.34L29.9016 119.256Z" fill="#29A19C" />
    <path
      d="M59.3254 100.012V105.518C59.3254 108.055 58.5983 110.017 57.1449 111.405C55.6907 112.793 53.6585 113.666 51.047 114.023C48.7316 114.339 46.8471 113.942 45.3929 112.83C43.9395 111.718 43.2132 109.954 43.2132 107.54V94.0212C43.2132 91.1309 43.8566 88.8818 45.1443 87.2724C46.4312 85.6637 48.4483 84.6706 51.1947 84.2954C52.3151 84.1417 53.3504 84.1379 54.299 84.2826C55.2476 84.4272 56.0877 84.7181 56.8209 85.1543C57.554 85.5906 58.1296 86.216 58.5486 87.0305C58.9675 87.845 59.177 88.8192 59.177 89.954V95.0941L52.7468 95.9734V92.5889C52.7468 90.8453 52.2292 90.0436 51.1947 90.1853C50.5791 90.2697 50.1722 90.5168 49.9756 90.9282C49.7782 91.3388 49.6794 91.8866 49.6794 92.5693V106.344C49.6794 106.942 49.8181 107.441 50.0954 107.842C50.3726 108.243 50.7388 108.413 51.1947 108.35C51.6136 108.293 51.9768 108.081 52.285 107.716C52.5924 107.351 52.7461 106.754 52.7461 105.925V100.912L59.3254 100.012Z"
      fill="white" />
    <path
      d="M61.579 104.387V90.5024C61.579 88.0755 62.2413 86.1036 63.5659 84.5869C64.8898 83.0709 66.882 82.1125 69.5432 81.7116C72.2776 81.3741 74.3067 81.7832 75.6313 82.9368C76.9559 84.0911 77.6175 85.8821 77.6175 88.309V102.193C77.6175 103.376 77.4668 104.473 77.1646 105.484C76.8632 106.495 76.4044 107.42 75.788 108.261C75.1724 109.102 74.3376 109.801 73.285 110.359C72.2324 110.918 71.0216 111.273 69.6548 111.423C68.2134 111.657 66.9664 111.639 65.913 111.368C64.8604 111.098 64.0248 110.626 63.4092 109.954C62.7936 109.282 62.3348 108.482 62.0326 107.553C61.7297 106.625 61.579 105.57 61.579 104.387ZM69.5975 105.723C69.8318 105.692 70.0383 105.617 70.2168 105.502C70.3947 105.386 70.5371 105.226 70.6411 105.023C70.7458 104.819 70.8287 104.628 70.8905 104.448C70.9522 104.269 70.9952 104.035 71.0201 103.745C71.0442 103.455 71.06 103.233 71.0668 103.08C71.0728 102.927 71.0758 102.716 71.0758 102.447C71.0758 102.386 71.0758 102.338 71.0758 102.301V90.5928C71.0758 90.5197 71.0788 90.3736 71.0856 90.1528C71.0916 89.9328 71.0916 89.7678 71.0856 89.6593C71.0788 89.55 71.0728 89.3895 71.0675 89.177C71.0607 88.9646 71.0427 88.8026 71.0118 88.6903C70.9809 88.5788 70.9439 88.4371 70.9018 88.2661C70.8581 88.0951 70.8 87.9685 70.7262 87.8871C70.6524 87.8057 70.5657 87.7206 70.4678 87.6302C70.3683 87.5398 70.2462 87.484 70.0978 87.4606C69.9509 87.438 69.7836 87.4395 69.599 87.4652C69.3406 87.5006 69.1153 87.5744 68.9246 87.6852C68.7333 87.7967 68.5833 87.9542 68.4711 88.1591C68.361 88.3633 68.2684 88.5464 68.1945 88.7091C68.1199 88.8719 68.0717 89.1047 68.0468 89.4061C68.022 89.7082 68.0099 89.9237 68.0099 90.0518C68.0099 90.1799 68.0099 90.3962 68.0099 90.7013C68.0099 90.7503 68.0099 90.7932 68.0099 90.8294C68.0099 90.8663 68.0099 90.9025 68.0099 90.9394V102.647C68.0099 102.915 68.0129 103.128 68.0197 103.286C68.0258 103.443 68.0401 103.673 68.0657 103.974C68.0905 104.276 68.1365 104.517 68.2043 104.696C68.2721 104.876 68.3618 105.062 68.4718 105.255C68.5833 105.447 68.734 105.582 68.9254 105.659C69.1145 105.738 69.3398 105.758 69.5975 105.723Z"
      fill="white" />
    <path
      d="M96.1122 107.53L90.2735 108.329L86.6893 87.8006V108.819L80.4437 109.674V80.5334L90.3481 79.1794L93.0825 94.0069L95.798 78.4342L105.794 77.0674V106.208L99.4749 107.072V86.0533L96.1122 107.53Z"
      fill="white" />
    <path d="M109.009 105.766V76.6251L115.291 75.7661V104.907L109.009 105.766Z" fill="white" />
    <path
      d="M134.47 73.1433V102.284L128.114 103.153L124.862 89.0182V103.598L118.505 104.467V75.3261L125.194 74.4114L128.187 87.9408V74.0015L134.47 73.1433Z"
      fill="white" />
    <path
      d="M150.785 100.053L149.676 97.7351C148.518 99.7589 146.732 100.937 144.318 101.267C139.624 101.909 137.278 99.2232 137.278 93.2105V80.5883C137.278 79.2102 137.463 77.9836 137.832 76.9091C138.201 75.8339 138.655 74.9825 139.19 74.3541C139.726 73.7257 140.382 73.1945 141.158 72.7582C141.934 72.3227 142.639 72.0161 143.274 71.8375C143.908 71.6597 144.595 71.5195 145.334 71.4186C146.245 71.2942 147.071 71.2453 147.809 71.2724C148.548 71.2995 149.186 71.411 149.722 71.6054C150.257 71.7998 150.728 72.0372 151.135 72.3175C151.541 72.5977 151.877 72.9654 152.142 73.4236C152.407 73.8809 152.623 74.3398 152.788 74.7986C152.955 75.2575 153.081 75.8188 153.167 76.4842C153.253 77.1495 153.312 77.7726 153.343 78.3528C153.373 78.9344 153.389 79.6216 153.389 80.4135L147.181 81.2627V78.9578C147.181 78.4944 147.132 78.1169 147.034 77.8261C146.935 77.5345 146.796 77.3371 146.617 77.2331C146.44 77.1299 146.276 77.0673 146.128 77.044C145.981 77.0221 145.814 77.0229 145.63 77.0485C145.26 77.099 144.961 77.1887 144.734 77.3175C144.505 77.4463 144.328 77.5925 144.198 77.7568C144.068 77.9203 143.973 78.1991 143.912 78.5916C143.85 78.9842 143.812 79.3526 143.801 79.6955C143.788 80.0383 143.783 80.5763 143.783 81.3079V92.5768C143.783 93.004 143.798 93.3612 143.83 93.6498C143.86 93.9376 143.931 94.2458 144.041 94.572C144.153 94.899 144.334 95.1326 144.587 95.275C144.839 95.4174 145.163 95.4619 145.557 95.4076C146.209 95.3187 146.643 95.006 146.86 94.4703C147.076 93.9353 147.183 93.0997 147.183 91.9658V88.6L145.447 88.8373V83.8064L153.317 82.7297V99.7054L150.785 100.053Z"
      fill="white" />
    <path d="M89.6858 151.84L183.244 139.044V100.357L89.6858 113.153V151.84Z" fill="#29A19C" />
    <path d="M183.244 135.803V150.478L167.929 137.258L183.244 135.803Z" fill="#29A19C" />
    <path
      d="M106.9 144.828C103.882 145.241 101.73 144.852 100.443 143.662C99.1554 142.473 98.512 140.45 98.512 137.597V134.743L104.942 133.864V136.48C104.942 138.359 105.459 139.227 106.494 139.085C106.975 139.019 107.354 138.785 107.63 138.38C107.908 137.977 108.046 137.476 108.046 136.878C108.046 136.097 107.938 135.454 107.722 134.946C107.508 134.44 107.181 133.975 106.744 133.553C106.306 133.131 105.589 132.561 104.591 131.844L101.839 129.861C99.6211 128.273 98.5127 126.291 98.5127 123.913C98.5127 121.328 99.181 119.313 100.518 117.868C101.854 116.423 103.692 115.54 106.032 115.22C106.093 115.212 106.149 115.204 106.199 115.198C106.248 115.191 106.574 115.146 107.178 115.064C107.782 114.981 108.557 115.012 109.507 115.157C110.455 115.301 111.299 115.643 112.038 116.182C112.776 116.721 113.331 117.536 113.7 118.626C114.07 119.715 114.254 121.084 114.254 122.73L107.658 123.632L107.621 121.88C107.609 121.552 107.467 121.28 107.196 121.06C106.925 120.841 106.623 120.755 106.291 120.8C105.86 120.858 105.494 121.04 105.191 121.343C104.89 121.647 104.739 122.006 104.739 122.42C104.739 123.25 105.349 124.069 106.568 124.877L110.504 127.485C111.145 127.91 111.702 128.355 112.177 128.82C112.651 129.286 113.026 129.759 113.303 130.239C113.581 130.72 113.805 131.158 113.978 131.556C114.15 131.953 114.27 132.394 114.338 132.878C114.406 133.363 114.446 133.729 114.458 133.978C114.471 134.227 114.477 134.551 114.477 134.954C114.477 135.978 114.409 136.917 114.273 137.771C114.137 138.625 113.897 139.463 113.553 140.284C113.208 141.106 112.755 141.814 112.194 142.409C111.634 143.004 110.907 143.515 110.014 143.942C109.121 144.372 108.083 144.667 106.9 144.828Z"
      fill="white" />
    <path
      d="M116.416 135.332V121.448C116.416 119.021 117.078 117.049 118.403 115.532C119.727 114.016 121.719 113.058 124.38 112.658C127.115 112.32 129.144 112.729 130.468 113.883C131.792 115.037 132.454 116.828 132.454 119.255V133.139C132.454 134.322 132.304 135.418 132.002 136.429C131.7 137.44 131.241 138.365 130.625 139.206C130.009 140.047 129.175 140.746 128.122 141.305C127.069 141.863 125.858 142.218 124.492 142.369C123.05 142.602 121.803 142.584 120.75 142.313C119.697 142.043 118.862 141.572 118.246 140.899C117.631 140.227 117.171 139.427 116.87 138.499C116.567 137.571 116.416 136.515 116.416 135.332ZM124.435 136.669C124.669 136.636 124.875 136.562 125.055 136.446C125.232 136.33 125.375 136.171 125.479 135.967C125.584 135.764 125.667 135.573 125.729 135.393C125.79 135.214 125.834 134.979 125.858 134.689C125.883 134.399 125.898 134.178 125.904 134.025C125.911 133.872 125.914 133.661 125.914 133.392C125.914 133.331 125.914 133.282 125.914 133.246V121.537C125.914 121.464 125.917 121.317 125.924 121.097C125.93 120.877 125.93 120.712 125.924 120.604C125.917 120.495 125.911 120.334 125.905 120.122C125.899 119.909 125.881 119.747 125.85 119.635C125.819 119.523 125.782 119.383 125.739 119.211C125.696 119.04 125.638 118.915 125.565 118.832C125.491 118.751 125.404 118.665 125.305 118.576C125.207 118.485 125.084 118.429 124.936 118.407C124.789 118.384 124.622 118.386 124.437 118.411C124.179 118.446 123.954 118.52 123.762 118.631C123.572 118.743 123.421 118.9 123.309 119.104C123.199 119.309 123.106 119.492 123.033 119.655C122.958 119.817 122.909 120.049 122.885 120.351C122.86 120.654 122.848 120.869 122.848 120.996C122.848 121.125 122.848 121.342 122.848 121.646C122.848 121.695 122.848 121.738 122.848 121.774C122.848 121.811 122.848 121.847 122.848 121.884V133.591C122.848 133.86 122.851 134.072 122.857 134.23C122.863 134.388 122.878 134.618 122.904 134.919C122.929 135.221 122.975 135.462 123.043 135.641C123.111 135.82 123.2 136.006 123.31 136.199C123.422 136.391 123.572 136.526 123.763 136.603C123.951 136.683 124.177 136.703 124.435 136.669Z"
      fill="white" />
    <path
      d="M134.893 132.805V118.921C134.893 116.494 135.556 114.522 136.88 113.005C138.204 111.489 140.196 110.53 142.857 110.13C145.592 109.792 147.621 110.201 148.945 111.355C150.269 112.509 150.932 114.3 150.932 116.727V130.612C150.932 131.794 150.781 132.891 150.479 133.902C150.177 134.913 149.718 135.838 149.102 136.679C148.487 137.519 147.652 138.219 146.599 138.777C145.546 139.336 144.335 139.69 142.968 139.841C141.528 140.074 140.28 140.056 139.227 139.785C138.173 139.515 137.339 139.044 136.724 138.372C136.108 137.699 135.648 136.9 135.347 135.971C135.044 135.044 134.893 133.988 134.893 132.805ZM142.912 134.142C143.146 134.109 143.352 134.035 143.53 133.919C143.709 133.803 143.851 133.644 143.955 133.44C144.061 133.237 144.144 133.046 144.206 132.866C144.267 132.687 144.31 132.453 144.334 132.163C144.359 131.873 144.375 131.651 144.38 131.498C144.387 131.345 144.39 131.134 144.39 130.866C144.39 130.804 144.39 130.755 144.39 130.719V119.012C144.39 118.939 144.392 118.792 144.399 118.572C144.406 118.351 144.406 118.187 144.399 118.078C144.392 117.969 144.387 117.809 144.381 117.595C144.375 117.383 144.356 117.221 144.326 117.109C144.295 116.998 144.258 116.856 144.215 116.685C144.171 116.514 144.113 116.388 144.039 116.307C143.965 116.226 143.879 116.14 143.781 116.049C143.682 115.959 143.559 115.903 143.411 115.88C143.264 115.858 143.097 115.859 142.913 115.884C142.653 115.92 142.429 115.993 142.238 116.104C142.048 116.216 141.897 116.373 141.785 116.577C141.674 116.782 141.582 116.965 141.508 117.127C141.434 117.29 141.385 117.522 141.361 117.824C141.336 118.127 141.324 118.342 141.324 118.469C141.324 118.597 141.324 118.814 141.324 119.119C141.324 119.168 141.324 119.211 141.324 119.247C141.324 119.284 141.324 119.32 141.324 119.357V131.064C141.324 131.333 141.327 131.546 141.333 131.703C141.339 131.861 141.354 132.091 141.379 132.391C141.403 132.693 141.45 132.934 141.518 133.113C141.586 133.293 141.675 133.479 141.785 133.671C141.896 133.863 142.048 133.998 142.238 134.075C142.429 134.155 142.653 134.177 142.912 134.142Z"
      fill="white" />
    <path
      d="M169.722 106.766V135.907L163.366 136.776L160.114 122.642V137.222L153.758 138.09V108.95L160.447 108.035L163.44 121.565V107.625L169.722 106.766Z"
      fill="white" />
  </g>
  <defs>
    <clipPath id="clip0_1002_275">
      <rect width="217" height="217" fill="currentColor" />
    </clipPath>
  </defs>
</svg>
  